<svg xmlns="http://www.w3.org/2000/svg" width="375" viewBox="0 0 375 375" height="375" version="1.0"><defs><clipPath id="a"><path d="M 94.6875 145.566406 L 139 145.566406 L 139 189.769531 L 94.6875 189.769531 Z M 94.6875 145.566406"/></clipPath><clipPath id="b"><path d="M 236 185.25 L 280.347656 185.25 L 280.347656 229.402344 L 236 229.402344 Z M 236 185.25"/></clipPath></defs><g clip-path="url(#a)"><path fill="#FFF" d="M 96.507812 189.46875 L 94.6875 189.46875 L 94.6875 145.316406 L 138.933594 145.316406 L 138.933594 147.136719 L 96.507812 147.136719 Z M 96.507812 189.46875"/></g><g clip-path="url(#b)"><path fill="#FFF" d="M 280.347656 229.527344 L 236.097656 229.527344 L 236.097656 227.710938 L 278.527344 227.710938 L 278.527344 185.375 L 280.347656 185.375 Z M 280.347656 229.527344"/></g><path fill="#FFF" d="M 121.117188 176.0625 L 124.960938 176.0625 C 125.964844 176.0625 126.851562 176.265625 127.613281 176.667969 C 128.378906 177.066406 128.96875 177.621094 129.394531 178.335938 C 129.816406 179.054688 130.03125 179.867188 130.03125 180.78125 C 130.03125 181.703125 129.816406 182.523438 129.394531 183.238281 C 128.96875 183.953125 128.378906 184.515625 127.613281 184.917969 C 126.851562 185.3125 125.964844 185.511719 124.960938 185.511719 L 121.117188 185.511719 Z M 124.917969 184.648438 C 125.742188 184.648438 126.464844 184.488281 127.078125 184.15625 C 127.699219 183.828125 128.179688 183.375 128.519531 182.800781 C 128.863281 182.21875 129.042969 181.542969 129.042969 180.78125 C 129.042969 180.027344 128.863281 179.363281 128.519531 178.789062 C 128.179688 178.207031 127.699219 177.75 127.078125 177.417969 C 126.464844 177.089844 125.742188 176.921875 124.917969 176.921875 L 122.121094 176.921875 L 122.121094 184.648438 Z M 124.917969 184.648438"/><path fill="#FFF" d="M 138.199219 182.984375 L 132.929688 182.984375 L 131.800781 185.511719 L 130.753906 185.511719 L 135.074219 176.0625 L 136.066406 176.0625 L 140.386719 185.511719 L 139.328125 185.511719 Z M 137.832031 182.179688 L 135.554688 177.09375 L 133.296875 182.179688 Z M 137.832031 182.179688"/><path fill="#FFF" d="M 149.796875 176.0625 L 145.613281 185.511719 L 144.625 185.511719 L 140.445312 176.0625 L 141.519531 176.0625 L 145.148438 184.269531 L 148.792969 176.0625 Z M 149.796875 176.0625"/><path fill="#FFF" d="M 151.363281 176.0625 L 152.363281 176.0625 L 152.363281 185.511719 L 151.363281 185.511719 Z M 151.363281 176.0625"/><path fill="#FFF" d="M 155.4375 176.0625 L 159.28125 176.0625 C 160.285156 176.0625 161.171875 176.265625 161.9375 176.667969 C 162.699219 177.066406 163.292969 177.621094 163.714844 178.335938 C 164.140625 179.054688 164.351562 179.867188 164.351562 180.78125 C 164.351562 181.703125 164.140625 182.523438 163.714844 183.238281 C 163.292969 183.953125 162.699219 184.515625 161.9375 184.917969 C 161.171875 185.3125 160.285156 185.511719 159.28125 185.511719 L 155.4375 185.511719 Z M 159.238281 184.648438 C 160.0625 184.648438 160.785156 184.488281 161.398438 184.15625 C 162.019531 183.828125 162.5 183.375 162.839844 182.800781 C 163.1875 182.21875 163.363281 181.542969 163.363281 180.78125 C 163.363281 180.027344 163.1875 179.363281 162.839844 178.789062 C 162.5 178.207031 162.019531 177.75 161.398438 177.417969 C 160.785156 177.089844 160.0625 176.921875 159.238281 176.921875 L 156.441406 176.921875 L 156.441406 184.648438 Z M 159.238281 184.648438"/><path fill="#FFF" d="M 183.101562 176.0625 L 179.910156 185.511719 L 178.867188 185.511719 L 176.097656 177.445312 L 173.3125 185.511719 L 172.269531 185.511719 L 169.078125 176.0625 L 170.109375 176.0625 L 172.835938 184.183594 L 175.660156 176.0625 L 176.589844 176.0625 L 179.375 184.226562 L 182.140625 176.0625 Z M 183.101562 176.0625"/><path fill="#FFF" d="M 185.117188 176.0625 L 186.121094 176.0625 L 186.121094 185.511719 L 185.117188 185.511719 Z M 185.117188 176.0625"/><path fill="#FFF" d="M 189.191406 176.0625 L 190.195312 176.0625 L 190.195312 184.648438 L 195.476562 184.648438 L 195.476562 185.511719 L 189.191406 185.511719 Z M 189.191406 176.0625"/><path fill="#FFF" d="M 197.144531 176.0625 L 198.144531 176.0625 L 198.144531 184.648438 L 203.429688 184.648438 L 203.429688 185.511719 L 197.144531 185.511719 Z M 197.144531 176.0625"/><path fill="#FFF" d="M 205.089844 176.0625 L 206.09375 176.0625 L 206.09375 185.511719 L 205.089844 185.511719 Z M 205.089844 176.0625"/><path fill="#FFF" d="M 215.101562 182.984375 L 209.832031 182.984375 L 208.703125 185.511719 L 207.65625 185.511719 L 211.976562 176.0625 L 212.96875 176.0625 L 217.289062 185.511719 L 216.230469 185.511719 Z M 214.734375 182.179688 L 212.457031 177.09375 L 210.199219 182.179688 Z M 214.734375 182.179688"/><path fill="#FFF" d="M 228.660156 176.0625 L 228.660156 185.511719 L 227.703125 185.511719 L 227.703125 177.953125 L 223.988281 184.3125 L 223.519531 184.3125 L 219.804688 177.996094 L 219.804688 185.511719 L 218.84375 185.511719 L 218.84375 176.0625 L 219.664062 176.0625 L 223.773438 183.066406 L 227.84375 176.0625 Z M 228.660156 176.0625"/><path fill="#FFF" d="M 235.269531 176.0625 L 236.273438 176.0625 L 236.273438 184.648438 L 241.554688 184.648438 L 241.554688 185.511719 L 235.269531 185.511719 Z M 235.269531 176.0625"/><path fill="#FFF" d="M 249.152344 182.984375 L 243.882812 182.984375 L 242.753906 185.511719 L 241.707031 185.511719 L 246.03125 176.0625 L 247.019531 176.0625 L 251.339844 185.511719 L 250.28125 185.511719 Z M 248.785156 182.179688 L 246.511719 177.09375 L 244.25 182.179688 Z M 248.785156 182.179688"/><path fill="#FFF" d="M 252.894531 176.0625 L 253.898438 176.0625 L 253.898438 185.511719 L 252.894531 185.511719 Z M 252.894531 176.0625"/></svg>